<?xml version="1.0" encoding="UTF-8" standalone="no"?>
<!-- Created with Inkscape (http://www.inkscape.org/) -->

<svg
   xmlns:dc="http://purl.org/dc/elements/1.1/"
   xmlns:cc="http://creativecommons.org/ns#"
   xmlns:rdf="http://www.w3.org/1999/02/22-rdf-syntax-ns#"
   xmlns:svg="http://www.w3.org/2000/svg"
   xmlns="http://www.w3.org/2000/svg"
   xmlns:sodipodi="http://sodipodi.sourceforge.net/DTD/sodipodi-0.dtd"
   xmlns:inkscape="http://www.inkscape.org/namespaces/inkscape"
   id="svg3116"
   version="1.1"
   inkscape:version="0.48.4 r9939"
   width="104"
   height="81"
   sodipodi:docname="logobike.svg">
  <metadata
     id="metadata3122">
    <rdf:RDF>
      <cc:Work
         rdf:about="">
        <dc:format>image/svg+xml</dc:format>
        <dc:type
           rdf:resource="http://purl.org/dc/dcmitype/StillImage" />
        <dc:title></dc:title>
      </cc:Work>
    </rdf:RDF>
  </metadata>
  <defs
     id="defs3120">
    <filter
       id="filter3374"
       style="color-interpolation-filters:sRGB;"
       inkscape:label="Drop Shadow">
      <feFlood
         id="feFlood3376"
         flood-opacity="0.5"
         flood-color="rgb(0,0,0)"
         result="flood" />
      <feComposite
         id="feComposite3378"
         in2="SourceGraphic"
         in="flood"
         operator="in"
         result="composite1" />
      <feGaussianBlur
         id="feGaussianBlur3380"
         in="composite"
         stdDeviation="1.5"
         result="blur" />
      <feOffset
         id="feOffset3382"
         dx="0.4"
         dy="1.2"
         result="offset" />
      <feComposite
         id="feComposite3384"
         in2="offset"
         in="SourceGraphic"
         operator="over"
         result="composite2" />
    </filter>
  </defs>
  <sodipodi:namedview
     pagecolor="#ffffff"
     bordercolor="#666666"
     borderopacity="1"
     objecttolerance="10"
     gridtolerance="10"
     guidetolerance="10"
     inkscape:pageopacity="0"
     inkscape:pageshadow="2"
     inkscape:window-width="640"
     inkscape:window-height="480"
     id="namedview3118"
     showgrid="false"
     inkscape:zoom="7.1498074"
     inkscape:cx="107.19149"
     inkscape:cy="49.644083"
     inkscape:window-x="1597"
     inkscape:window-y="299"
     inkscape:window-maximized="0"
     inkscape:current-layer="svg3116" />
  <g
     id="g3166"
     inkscape:export-xdpi="90"
     inkscape:export-ydpi="90"
     style="filter:url(#filter3374)">
    <path
       style="fill:#a0a0a0;stroke:none"
       d=""
       id="path3174"
       inkscape:connector-curvature="0" />
    <path
       style="fill:#d40000;stroke:none"
       d="m 20.825604,76.400415 c -1.38828,-0.254389 -3.69977,-1.036219 -5.00106,-1.691537 -2.50087,-1.259416 -4.68843,-3.014029 -6.7778704,-5.436448 -3.93749,-4.564958 -5.44093,-8.60572 -5.41211,-14.546013 0.0104,-2.150998 0.0659,-2.774169 0.38123,-4.280053 0.42608,-2.035049 1.01229,-3.792398 1.78134,-5.340086 1.52956,-3.078202 4.3623804,-6.278035 7.5398104,-8.516656 3.24574,-2.28675 6.93333,-3.155384 12.80349,-3.015941 3.34234,0.0794 4.11712,0.249598 6.76091,1.48522 0.97394,0.455183 1.88093,0.823466 2.01555,0.818403 0.30896,-0.01162 0.30641,-0.160659 -0.0252,-1.477783 -0.50445,-2.003473 -1.71011,-7.500966 -1.90688,-8.694865 -0.31126,-1.888585 -0.19968,-7.033978 0.21783,-10.045434 0.14595,-1.052711 0.64726,-1.78661 2.51096,-3.675949 l 1.19638,-1.212832 2.23782,-0.08508 c 3.9901,-0.151695 22.60309,-0.09946 23.50642,0.06597 1.03921,0.190313 1.81384,0.515291 1.89645,1.142995 0.43526,3.307577 0.19051,2.656825 0.19128,12.504781 5.6e-4,6.628303 0.0491,12.099639 0.10787,12.158526 0.0588,0.05889 0.90848,-0.280424 1.88816,-0.754026 3.28489,-1.587989 5.44797,-2.106851 9.26396,-2.22216 2.0541,-0.06207 2.83475,-0.03147 3.78699,0.148449 2.65549,0.501729 5.93981,1.878626 8.2734,3.468482 1.44285,0.982998 3.62074,3.082819 4.58342,4.41912 1.83306,2.544488 3.08394,5.5866 3.72242,9.05286 0.36704,1.992653 0.36844,6.503396 0.003,8.182038 -1.07827,4.946686 -3.85989,9.857903 -7.08169,12.503379 -3.22903,2.651421 -6.59684,3.946038 -11.21047,4.309405 -3.35574,0.264297 -6.25996,-0.115859 -8.90576,-1.16574 -5.091,-2.020171 -8.93931,-5.53425 -11.39963,-10.409574 -1.5142,-3.000522 -2.19134,-5.980497 -2.19134,-9.643742 0,-2.009867 0.21654,-3.320607 0.90446,-5.474733 0.19291,-0.604072 0.35155,-1.170354 0.35253,-1.258405 9.8e-4,-0.08805 -1.36713,-1.092361 -3.04025,-2.231798 -3.44568,-2.346592 -9.38726,-5.582654 -10.41116,-6.401979 -1.1662,-0.933199 -0.61549,-1.302091 -0.62147,-0.633086 -0.003,0.34455 -0.76606,0.985095 -1.65885,1.599982 -0.42373,0.291839 -0.77042,0.612478 -0.77042,0.712531 0,0.100054 0.41716,0.640307 0.92704,1.200562 3.15656,3.468471 4.57473,7.722284 4.58283,13.74626 0.004,2.782544 -0.1746,4.016759 -0.91886,6.358734 -0.79663,2.506807 -2.00665,4.536176 -4.28766,7.191023 -3.4026,3.960243 -6.59494,5.872762 -11.63233,6.968866 -1.76623,0.384321 -6.49126,0.486147 -8.18204,0.176328 l 0,0 z m 8.81143,-6.213969 c 1.86249,-0.602864 3.51083,-1.571112 5.05135,-2.967192 2.57592,-2.334404 4.20349,-4.797124 5.14391,-7.783393 1.03918,-3.299851 1.04672,-7.321218 0.0187,-9.944514 -0.67951,-1.733907 -2.16983,-3.936352 -3.67042,-5.424269 l -1.01733,-1.008729 -2.13369,0.02968 c -2.00969,0.02796 -2.17201,0.0101 -2.7929,-0.307231 -0.3825,-0.195493 -1.34193,-1.021124 -2.28569,-1.966944 -1.35389,-1.356835 -1.68879,-1.62361 -1.99821,-1.591725 -6.08355,0.626898 -8.77157,1.588125 -11.362,4.063007 -3.78449,3.615683 -5.6047304,8.486557 -5.0334604,13.469305 0.38368,3.346573 1.8446904,6.199132 4.5488104,8.881359 1.45279,1.441031 2.91246,2.490255 4.66201,3.351104 2.60184,1.280212 4.19715,1.610597 7.51223,1.55577 2.01897,-0.03339 2.5254,-0.08713 3.35674,-0.356228 z m 50.07128,-0.210214 c 1.16473,-0.305525 2.30775,-0.777702 2.30775,-0.95332 0,-0.08081 0.0407,-0.106211 0.0905,-0.05644 0.13122,0.131214 1.51259,-0.638245 2.5688,-1.430882 1.15148,-0.864131 3.1238,-2.903437 3.86667,-3.997995 3.45818,-5.095324 3.57498,-11.09132 0.32666,-16.768662 -1.7791,-3.109468 -4.92579,-5.523666 -8.60091,-6.598778 -1.01506,-0.296943 -1.65839,-0.382657 -3.32273,-0.442708 -2.29211,-0.0827 -3.55925,0.06421 -5.34884,0.620127 -5.7933,1.799636 -9.96118,7.516217 -10.3717,14.225639 -0.0489,0.799499 -0.0432,1.57014 0.0127,1.712536 0.0559,0.142395 0.11872,0.573594 0.1396,0.95822 0.0455,0.837937 0.48313,2.447619 0.66543,2.447619 0.0713,0 0.0916,0.06167 0.045,0.137055 -0.13985,0.226286 0.67046,1.978916 1.51144,3.269082 2.37167,3.638472 6.00502,6.149661 10.16546,7.025865 1.18702,0.249992 4.76785,0.161223 5.94421,-0.147358 z M 59.270804,41.684107 c 0.13268,-0.682389 0.38005,-8.846057 0.33794,-11.152244 -0.0385,-2.106872 -0.057,-2.239024 -0.32013,-2.289695 -0.2125,-0.04091 -1.15801,0.845055 -3.95343,3.704491 -2.02076,2.067046 -3.65737,3.828285 -3.63689,3.913865 0.0205,0.08558 1.39042,1.290937 3.04431,2.678574 1.65389,1.387636 3.25883,2.746853 3.56653,3.020483 0.678,0.602925 0.86398,0.627007 0.96167,0.124526 z m -16.1314,-5.182971 c 0.66384,-1.16026 1.28471,-1.830512 4.27022,-5.412986 3.25879,-3.910407 3.96731,-4.559937 3.97236,-4.797001 0.003,-0.146709 -0.62375,-0.172325 -3.17802,-0.129867 -3.45538,0.05744 -7.10096,0.190786 -7.46861,0.27319 -1.10913,0.248595 -0.90634,2.027888 0.78458,6.883912 0.40349,1.158748 1.10838,2.951996 1.10838,2.951996 0.60194,1.302975 -0.13769,0.851824 0.51109,0.230756 z"
       id="path3176"
       inkscape:connector-curvature="0"
       sodipodi:nodetypes="cssssssssssssscssssssssssscsssssscsscssscssscccssssscsssssssssscssssssssscssssscssscscssccscsscc" />
    <path
       style="fill:#d40000"
       d="m 25.231324,20.444062 c -2.40104,-0.437045 -5.00571,-2.551842 -5.60776,-4.55306 -0.68264,-2.269159 -0.22138,-4.74944 1.18294,-6.3608516 1.49785,-1.7187189 4.30189,-2.6857217 6.64288,-2.2908624 1.36802,0.230746 2.77599,0.9498633 3.554,1.8151883 0.67977,0.756074 1.85367,2.9348537 1.99919,3.7105387 0.11682,0.622699 -0.39009,2.922076 -0.8697,3.945014 -0.57132,1.218564 -2.45356,2.751243 -4.15448,3.382939 -0.82477,0.306309 -2.09866,0.469121 -2.74707,0.351094 z"
       id="path3178"
       inkscape:connector-curvature="0" />
  </g>
</svg>
